<svg width="25" height="39" viewBox="0 0 25 39" fill="none" xmlns="http://www.w3.org/2000/svg">
<path d="M0.72117 30.5973C0.72117 29.8509 0.887837 29.1842 1.22117 28.5973C1.56175 28.0031 2.02189 27.5429 2.60161 27.2168C3.18856 26.8835 3.84436 26.7168 4.569 26.7168C5.41682 26.7168 6.15958 26.9342 6.79726 27.369C7.43494 27.8038 7.88059 28.4052 8.13421 29.1734H6.38421C6.2103 28.811 5.96392 28.5393 5.64508 28.3581C5.33349 28.177 4.97117 28.0864 4.55813 28.0864C4.1161 28.0864 3.72117 28.1915 3.37334 28.4016C3.03276 28.6045 2.76465 28.8944 2.569 29.2712C2.38059 29.648 2.28639 30.09 2.28639 30.5973C2.28639 31.0973 2.38059 31.5393 2.569 31.9234C2.76465 32.3002 3.03276 32.5936 3.37334 32.8038C3.72117 33.0067 4.1161 33.1081 4.55813 33.1081C4.97117 33.1081 5.33349 33.0176 5.64508 32.8364C5.96392 32.648 6.2103 32.3726 6.38421 32.0103H8.13421C7.88059 32.7857 7.43494 33.3907 6.79726 33.8255C6.16682 34.2531 5.42407 34.4668 4.569 34.4668C3.84436 34.4668 3.18856 34.3038 2.60161 33.9777C2.02189 33.6444 1.56175 33.1842 1.22117 32.5973C0.887837 32.0103 0.72117 31.3436 0.72117 30.5973ZM9.04267 31.369C9.04267 30.7603 9.16224 30.2205 9.40137 29.7494C9.64774 29.2784 9.97745 28.9161 10.3905 28.6625C10.8108 28.4089 11.2782 28.282 11.7927 28.282C12.2419 28.282 12.6333 28.3726 12.9666 28.5538C13.3072 28.7349 13.5789 28.9632 13.7818 29.2386V28.3799H15.3144V34.4016H13.7818V33.5212C13.5862 33.8038 13.3144 34.0393 12.9666 34.2277C12.626 34.4089 12.2311 34.4994 11.7818 34.4994C11.2746 34.4994 10.8108 34.369 10.3905 34.1081C9.97745 33.8473 9.64774 33.4813 9.40137 33.0103C9.16224 32.532 9.04267 31.9849 9.04267 31.369ZM13.7818 31.3907C13.7818 31.0212 13.7093 30.706 13.5644 30.4451C13.4195 30.177 13.2238 29.9741 12.9775 29.8364C12.7311 29.6915 12.4666 29.619 12.184 29.619C11.9014 29.619 11.6405 29.6878 11.4014 29.8255C11.1622 29.9632 10.9666 30.1661 10.8144 30.4342C10.6695 30.6951 10.597 31.0067 10.597 31.369C10.597 31.7313 10.6695 32.0502 10.8144 32.3255C10.9666 32.5936 11.1622 32.8002 11.4014 32.9451C11.6477 33.09 11.9086 33.1625 12.184 33.1625C12.4666 33.1625 12.7311 33.0936 12.9775 32.956C13.2238 32.811 13.4195 32.6081 13.5644 32.3473C13.7093 32.0791 13.7818 31.7603 13.7818 31.3907ZM18.3224 29.3147C18.518 28.9958 18.7717 28.7458 19.0833 28.5647C19.4021 28.3835 19.7644 28.2929 20.1702 28.2929V29.8907H19.768C19.2898 29.8907 18.9275 30.0031 18.6811 30.2277C18.442 30.4523 18.3224 30.8436 18.3224 31.4016V34.4016H16.8007V28.3799H18.3224V29.3147ZM22.9669 29.6299V32.5429C22.9669 32.7458 23.014 32.8944 23.1082 32.9886C23.2097 33.0755 23.3763 33.119 23.6082 33.119H24.3148V34.4016H23.3582C22.0756 34.4016 21.4343 33.7784 21.4343 32.532V29.6299H20.7169V28.3799H21.4343V26.8907H22.9669V28.3799H24.3148V29.6299H22.9669Z" fill="#181725"/>
<path d="M9.54336 17.72C8.95591 17.72 8.39251 17.4867 7.97712 17.0713C7.56172 16.6559 7.32836 16.0925 7.32836 15.505C7.32836 14.9176 7.56172 14.3542 7.97712 13.9388C8.39251 13.5234 8.95591 13.29 9.54336 13.29C10.1308 13.29 10.6942 13.5234 11.1096 13.9388C11.525 14.3542 11.7584 14.9176 11.7584 15.505C11.7584 16.0925 11.525 16.6559 11.1096 17.0713C10.6942 17.4867 10.1308 17.72 9.54336 17.72ZM17.2959 17.72C16.7084 17.72 16.145 17.4867 15.7296 17.0713C15.3142 16.6559 15.0809 16.0925 15.0809 15.505C15.0809 14.9176 15.3142 14.3542 15.7296 13.9388C16.145 13.5234 16.7084 13.29 17.2959 13.29C17.8833 13.29 18.4467 13.5234 18.8621 13.9388C19.2775 14.3542 19.5109 14.9176 19.5109 15.505C19.5109 16.0925 19.2775 16.6559 18.8621 17.0713C18.4467 17.4867 17.8833 17.72 17.2959 17.72ZM2.85627 2.12973C2.57979 2.12081 2.31762 2.00471 2.1252 1.80598C1.93278 1.60726 1.8252 1.34148 1.8252 1.06486C1.8252 0.788244 1.93278 0.522469 2.1252 0.323742C2.31762 0.125015 2.57979 0.0089174 2.85627 0L4.131 0C5.12997 0 5.99382 0.693296 6.21089 1.6679L7.59859 7.91642C7.81566 8.89102 8.67951 9.58432 9.67848 9.58432H17.998L19.595 3.19404H9.24544C8.97157 3.18154 8.71306 3.06395 8.52367 2.86572C8.33428 2.66749 8.22859 2.40388 8.22859 2.12973C8.22859 1.85557 8.33428 1.59196 8.52367 1.39373C8.71306 1.19551 8.97157 1.07791 9.24544 1.06542H19.595C19.9188 1.06532 20.2383 1.13904 20.5293 1.28097C20.8203 1.42291 21.0751 1.62931 21.2744 1.88451C21.4736 2.1397 21.612 2.43696 21.6791 2.75369C21.7463 3.07042 21.7403 3.39828 21.6616 3.71235L20.0646 10.1004C19.9495 10.5614 19.6835 10.9706 19.3091 11.263C18.9346 11.5553 18.4731 11.7141 17.998 11.714H9.67848C8.70919 11.7142 7.76884 11.3837 7.01273 10.7772C6.25663 10.1707 5.73 9.32448 5.51981 8.37825L4.131 2.12973H2.85627Z" fill="#181725"/>
</svg>
