<svg width="41" height="38" viewBox="0 0 41 38" fill="none" xmlns="http://www.w3.org/2000/svg">
<path d="M23.9763 12.6816C24.69 12.6816 25.3967 12.541 26.0561 12.2679C26.7155 11.9948 27.3146 11.5945 27.8193 11.0898C28.324 10.5851 28.7243 9.98601 28.9974 9.32663C29.2705 8.66726 29.4111 7.96054 29.4111 7.24683C29.4111 6.53313 29.2705 5.82641 28.9974 5.16703C28.7243 4.50765 28.324 3.90853 27.8193 3.40386C27.3146 2.89919 26.7155 2.49887 26.0561 2.22575C25.3967 1.95262 24.69 1.81205 23.9763 1.81205C22.5349 1.81205 21.1526 2.38464 20.1334 3.40386C19.1141 4.42308 18.5415 5.80544 18.5415 7.24683C18.5415 8.68823 19.1141 10.0706 20.1334 11.0898C21.1526 12.109 22.5349 12.6816 23.9763 12.6816ZM29.701 11.6907L32.9437 14.9334C33.0302 15.017 33.0991 15.117 33.1465 15.2276C33.1939 15.3381 33.2188 15.457 33.2197 15.5773C33.2207 15.6975 33.1977 15.8168 33.1521 15.9281C33.1065 16.0394 33.0391 16.1405 32.954 16.2255C32.8689 16.3104 32.7677 16.3776 32.6564 16.4231C32.545 16.4686 32.4257 16.4914 32.3055 16.4903C32.1852 16.4891 32.0664 16.4641 31.9559 16.4165C31.8454 16.369 31.7455 16.2999 31.662 16.2133L28.4193 12.9706C26.9632 14.1009 25.131 14.6338 23.2958 14.4608C21.4607 14.2878 19.7604 13.4219 18.5411 12.0395C17.3219 10.657 16.6753 8.86182 16.7331 7.01941C16.7908 5.177 17.5485 3.42584 18.8519 2.12242C20.1553 0.818997 21.9065 0.0612954 23.7489 0.00355889C25.5913 -0.0541776 27.3865 0.592391 28.769 1.81164C30.1514 3.0309 31.0173 4.73117 31.1903 6.56636C31.3633 8.40154 30.8304 10.2337 29.7001 11.6898L29.701 11.6907Z" fill="#181725"/>
<rect x="7.54102" width="8.02083" height="2.17321" rx="1.08661" fill="#181725"/>
<rect x="7.54102" y="6.73743" width="5.8552" height="2.17321" rx="1.08661" fill="#181725"/>
<rect x="7.54102" y="13.4753" width="8.02083" height="2.17321" rx="1.08661" fill="#181725"/>
<path d="M2.73098 26.8818V28.784H5.28533V29.9905H2.73098V32.0013H5.61141V33.2405H1.20924V25.6427H5.61141V26.8818H2.73098ZM10.3204 33.2405L9.08127 31.3709L7.98344 33.2405H6.35301L8.3204 30.2187L6.33127 27.2187H8.04866L9.27692 29.0774L10.3856 27.2187H12.0161L10.0378 30.2187L12.0378 33.2405H10.3204ZM14.386 28.0883C14.5817 27.8129 14.8498 27.5847 15.1904 27.4035C15.5382 27.2151 15.9331 27.1209 16.3752 27.1209C16.8897 27.1209 17.3534 27.2477 17.7665 27.5013C18.1868 27.755 18.5165 28.1173 18.7556 28.5883C19.002 29.0521 19.1252 29.5919 19.1252 30.2079C19.1252 30.8238 19.002 31.3709 18.7556 31.8492C18.5165 32.3202 18.1868 32.6861 17.7665 32.947C17.3534 33.2079 16.8897 33.3383 16.3752 33.3383C15.9331 33.3383 15.5418 33.2477 15.2013 33.0666C14.8679 32.8854 14.5962 32.6571 14.386 32.3818V36.11H12.8643V27.2187H14.386V28.0883ZM17.5708 30.2079C17.5708 29.8456 17.4947 29.534 17.3426 29.2731C17.1976 29.005 17.002 28.8021 16.7556 28.6644C16.5165 28.5267 16.2556 28.4579 15.973 28.4579C15.6976 28.4579 15.4368 28.5303 15.1904 28.6753C14.9513 28.8129 14.7556 29.0158 14.6034 29.284C14.4585 29.5521 14.386 29.8673 14.386 30.2296C14.386 30.5919 14.4585 30.9071 14.6034 31.1753C14.7556 31.4434 14.9513 31.6499 15.1904 31.7948C15.4368 31.9325 15.6976 32.0013 15.973 32.0013C16.2556 32.0013 16.5165 31.9289 16.7556 31.784C17.002 31.639 17.1976 31.4325 17.3426 31.1644C17.4947 30.8963 17.5708 30.5774 17.5708 30.2079ZM21.7527 25.197V33.2405H20.231V25.197H21.7527ZM25.9301 33.3383C25.3504 33.3383 24.8287 33.2115 24.3649 32.9579C23.9011 32.697 23.5352 32.3311 23.2671 31.86C23.0062 31.389 22.8758 30.8456 22.8758 30.2296C22.8758 29.6137 23.0098 29.0702 23.2779 28.5992C23.5533 28.1282 23.9265 27.7658 24.3975 27.5122C24.8685 27.2513 25.3939 27.1209 25.9736 27.1209C26.5533 27.1209 27.0787 27.2513 27.5497 27.5122C28.0207 27.7658 28.3903 28.1282 28.6584 28.5992C28.9337 29.0702 29.0714 29.6137 29.0714 30.2296C29.0714 30.8456 28.9301 31.389 28.6475 31.86C28.3721 32.3311 27.9953 32.697 27.5171 32.9579C27.0461 33.2115 26.5171 33.3383 25.9301 33.3383ZM25.9301 32.0122C26.2055 32.0122 26.4627 31.947 26.7019 31.8166C26.9482 31.6789 27.1439 31.476 27.2888 31.2079C27.4337 30.9398 27.5062 30.6137 27.5062 30.2296C27.5062 29.6571 27.354 29.2187 27.0497 28.9144C26.7526 28.6028 26.3866 28.447 25.9519 28.447C25.5171 28.447 25.1511 28.6028 24.854 28.9144C24.5642 29.2187 24.4192 29.6571 24.4192 30.2296C24.4192 30.8021 24.5605 31.2441 24.8432 31.5557C25.133 31.86 25.4953 32.0122 25.9301 32.0122ZM31.7094 28.1535C31.9051 27.8347 32.1587 27.5847 32.4703 27.4035C32.7891 27.2224 33.1514 27.1318 33.5572 27.1318V28.7296H33.1551C32.6768 28.7296 32.3145 28.8419 32.0681 29.0666C31.829 29.2912 31.7094 29.6825 31.7094 30.2405V33.2405H30.1877V27.2187H31.7094V28.1535ZM40.18 30.0992C40.18 30.3166 40.1655 30.5122 40.1366 30.6861H35.7344C35.7706 31.1209 35.9228 31.4615 36.1909 31.7079C36.459 31.9542 36.7887 32.0774 37.18 32.0774C37.7452 32.0774 38.1474 31.8347 38.3866 31.3492H40.0279C39.8539 31.9289 39.5206 32.4071 39.0279 32.784C38.5351 33.1535 37.93 33.3383 37.2126 33.3383C36.6329 33.3383 36.1112 33.2115 35.6474 32.9579C35.1909 32.697 34.8322 32.3311 34.5713 31.86C34.3177 31.389 34.1909 30.8456 34.1909 30.2296C34.1909 29.6064 34.3177 29.0593 34.5713 28.5883C34.825 28.1173 35.18 27.755 35.6366 27.5013C36.0931 27.2477 36.6184 27.1209 37.2126 27.1209C37.7851 27.1209 38.296 27.2441 38.7452 27.4905C39.2018 27.7369 39.5532 28.0883 39.7996 28.5448C40.0532 28.9941 40.18 29.5122 40.18 30.0992ZM38.6039 29.6644C38.5967 29.2731 38.4554 28.9615 38.18 28.7296C37.9047 28.4905 37.5677 28.3709 37.1692 28.3709C36.7923 28.3709 36.4735 28.4869 36.2126 28.7187C35.959 28.9434 35.8032 29.2586 35.7452 29.6644H38.6039Z" fill="#181725"/>
</svg>
