<svg width="53" height="41" viewBox="0 0 53 41" fill="none" xmlns="http://www.w3.org/2000/svg">
<g clip-path="url(#clip0_1_851)">
<path d="M19.6505 9.97257L26.7376 17.0596L33.8246 9.97257C34.4512 9.34598 34.8032 8.49615 34.8032 7.61003C34.8032 6.72391 34.4512 5.87408 33.8246 5.2475C33.5144 4.93724 33.146 4.69114 32.7407 4.52323C32.3353 4.35532 31.9008 4.2689 31.4621 4.2689C30.576 4.2689 29.7261 4.62091 29.0996 5.2475L26.7376 7.60947L24.3756 5.24861C23.7474 4.63043 22.9004 4.28552 22.0191 4.28901C21.1378 4.29249 20.2935 4.64409 19.6702 5.26721C19.047 5.89034 18.6952 6.7345 18.6915 7.61583C18.6878 8.49716 19.0325 9.34424 19.6505 9.97257ZM25.9502 3.67173L26.7376 4.45906L27.5249 3.67173C28.0411 3.15097 28.6551 2.7373 29.3316 2.45447C30.0082 2.17164 30.7339 2.02522 31.4671 2.02361C32.2004 2.02201 32.9268 2.16525 33.6045 2.44511C34.2823 2.72498 34.8981 3.13596 35.4166 3.65445C35.935 4.17295 36.346 4.78875 36.6259 5.4665C36.9058 6.14425 37.049 6.87061 37.0474 7.60387C37.0458 8.33713 36.8994 9.06285 36.6165 9.73937C36.3337 10.4159 35.92 11.0299 35.3993 11.5461L27.526 19.4205C27.4226 19.524 27.2998 19.6062 27.1646 19.6622C27.0294 19.7182 26.8845 19.7471 26.7381 19.7471C26.5918 19.7471 26.4469 19.7182 26.3117 19.6622C26.1765 19.6062 26.0537 19.524 25.9502 19.4205L18.0759 11.5472C17.548 11.0327 17.1276 10.4184 16.839 9.74011C16.5504 9.06181 16.3994 8.33295 16.3946 7.59582C16.3899 6.85868 16.5316 6.12795 16.8115 5.446C17.0914 4.76406 17.5039 4.14447 18.0251 3.6232C18.5463 3.10192 19.1658 2.68932 19.8477 2.40933C20.5296 2.12935 21.2604 1.98756 21.9975 1.99217C22.7346 1.99679 23.4635 2.14773 24.1419 2.43624C24.8202 2.72475 25.4345 3.14508 25.9491 3.67285L25.9502 3.67173Z" fill="#181725"/>
</g>
<path d="M5.88604 28.5857V29.8139H2.723V31.7596H5.14691V32.9661H2.723V36.1726H1.20126V28.5857H5.88604ZM6.57379 33.14C6.57379 32.5313 6.69336 31.9914 6.93249 31.5204C7.17887 31.0494 7.50858 30.6871 7.92162 30.4335C8.34191 30.1799 8.8093 30.053 9.3238 30.053C9.77307 30.053 10.1644 30.1436 10.4977 30.3248C10.8383 30.5059 11.11 30.7342 11.3129 31.0096V30.1509H12.8455V36.1726H11.3129V35.2922C11.1173 35.5748 10.8455 35.8103 10.4977 35.9987C10.1571 36.1799 9.7622 36.2704 9.31293 36.2704C8.80568 36.2704 8.34191 36.14 7.92162 35.8791C7.50858 35.6183 7.17887 35.2523 6.93249 34.7813C6.69336 34.303 6.57379 33.7559 6.57379 33.14ZM11.3129 33.1617C11.3129 32.7922 11.2405 32.477 11.0955 32.2161C10.9506 31.948 10.755 31.7451 10.5086 31.6074C10.2622 31.4625 9.99771 31.39 9.7151 31.39C9.43249 31.39 9.17162 31.4588 8.93249 31.5965C8.69336 31.7342 8.49771 31.9371 8.34553 32.2052C8.20061 32.4661 8.12814 32.7777 8.12814 33.14C8.12814 33.5023 8.20061 33.8212 8.34553 34.0965C8.49771 34.3646 8.69336 34.5712 8.93249 34.7161C9.17887 34.861 9.43974 34.9335 9.7151 34.9335C9.99771 34.9335 10.2622 34.8646 10.5086 34.727C10.755 34.582 10.9506 34.3791 11.0955 34.1183C11.2405 33.8501 11.3129 33.5313 11.3129 33.1617ZM16.8426 34.7704L18.3644 30.1509H19.984L17.7557 36.1726H15.9079L13.6905 30.1509H15.3209L16.8426 34.7704ZM23.5126 36.2704C22.9329 36.2704 22.4111 36.1436 21.9474 35.89C21.4836 35.6291 21.1176 35.2632 20.8495 34.7922C20.5887 34.3212 20.4582 33.7777 20.4582 33.1617C20.4582 32.5458 20.5923 32.0023 20.8604 31.5313C21.1358 31.0603 21.5089 30.698 21.98 30.4443C22.451 30.1835 22.9763 30.053 23.556 30.053C24.1358 30.053 24.6611 30.1835 25.1321 30.4443C25.6031 30.698 25.9727 31.0603 26.2408 31.5313C26.5162 32.0023 26.6539 32.5458 26.6539 33.1617C26.6539 33.7777 26.5126 34.3212 26.23 34.7922C25.9546 35.2632 25.5778 35.6291 25.0995 35.89C24.6285 36.1436 24.0995 36.2704 23.5126 36.2704ZM23.5126 34.9443C23.7879 34.9443 24.0452 34.8791 24.2843 34.7487C24.5307 34.611 24.7263 34.4081 24.8713 34.14C25.0162 33.8719 25.0887 33.5458 25.0887 33.1617C25.0887 32.5893 24.9365 32.1509 24.6321 31.8465C24.335 31.5349 23.9691 31.3791 23.5343 31.3791C23.0995 31.3791 22.7336 31.5349 22.4365 31.8465C22.1466 32.1509 22.0017 32.5893 22.0017 33.1617C22.0017 33.7342 22.143 34.1762 22.4256 34.4878C22.7155 34.7922 23.0778 34.9443 23.5126 34.9443ZM33.4549 30.1509V36.1726H31.9223V35.4117C31.7266 35.6726 31.4694 35.8791 31.1506 36.0313C30.839 36.1762 30.4984 36.2487 30.1288 36.2487C29.6578 36.2487 29.2411 36.1509 28.8788 35.9552C28.5165 35.7523 28.2303 35.4588 28.0201 35.0748C27.8172 34.6835 27.7158 34.2197 27.7158 33.6835V30.1509H29.2375V33.4661C29.2375 33.9443 29.3571 34.3139 29.5962 34.5748C29.8353 34.8284 30.1614 34.9552 30.5745 34.9552C30.9948 34.9552 31.3245 34.8284 31.5636 34.5748C31.8027 34.3139 31.9223 33.9443 31.9223 33.4661V30.1509H33.4549ZM36.4781 31.0857C36.6737 30.7668 36.9274 30.5168 37.239 30.3357C37.5578 30.1545 37.9201 30.0639 38.3259 30.0639V31.6617H37.9237C37.4455 31.6617 37.0832 31.7741 36.8368 31.9987C36.5977 32.2233 36.4781 32.6146 36.4781 33.1726V36.1726H34.9564V30.1509H36.4781V31.0857ZM40.1226 29.4335C39.8545 29.4335 39.6299 29.3501 39.4487 29.1835C39.2748 29.0096 39.1878 28.7958 39.1878 28.5422C39.1878 28.2885 39.2748 28.0784 39.4487 27.9117C39.6299 27.7378 39.8545 27.6509 40.1226 27.6509C40.3907 27.6509 40.6118 27.7378 40.7857 27.9117C40.9668 28.0784 41.0574 28.2885 41.0574 28.5422C41.0574 28.7958 40.9668 29.0096 40.7857 29.1835C40.6118 29.3501 40.3907 29.4335 40.1226 29.4335ZM40.8726 30.1509V36.1726H39.3509V30.1509H40.8726ZM44.1478 31.4009V34.3139C44.1478 34.5168 44.1949 34.6654 44.2891 34.7596C44.3906 34.8465 44.5573 34.89 44.7891 34.89H45.4957V36.1726H44.5391C43.2565 36.1726 42.6152 35.5494 42.6152 34.303V31.4009H41.8978V30.1509H42.6152V28.6617H44.1478V30.1509H45.4957V31.4009H44.1478ZM52.188 33.0313C52.188 33.2487 52.1735 33.4443 52.1445 33.6183H47.7424C47.7786 34.053 47.9308 34.3936 48.1989 34.64C48.467 34.8864 48.7967 35.0096 49.188 35.0096C49.7532 35.0096 50.1554 34.7668 50.3945 34.2813H52.0358C51.8619 34.861 51.5286 35.3393 51.0358 35.7161C50.5431 36.0857 49.938 36.2704 49.2206 36.2704C48.6409 36.2704 48.1192 36.1436 47.6554 35.89C47.1989 35.6291 46.8402 35.2632 46.5793 34.7922C46.3257 34.3212 46.1989 33.7777 46.1989 33.1617C46.1989 32.5385 46.3257 31.9914 46.5793 31.5204C46.8329 31.0494 47.188 30.6871 47.6445 30.4335C48.1011 30.1799 48.6264 30.053 49.2206 30.053C49.7931 30.053 50.304 30.1762 50.7532 30.4226C51.2098 30.669 51.5612 31.0204 51.8076 31.477C52.0612 31.9262 52.188 32.4443 52.188 33.0313ZM50.6119 32.5965C50.6047 32.2052 50.4634 31.8936 50.188 31.6617C49.9127 31.4226 49.5757 31.303 49.1771 31.303C48.8003 31.303 48.4815 31.419 48.2206 31.6509C47.967 31.8755 47.8112 32.1907 47.7532 32.5965H50.6119Z" fill="#181725"/>
<defs>
<clipPath id="clip0_1_851">
<rect width="21.7391" height="21.7391" fill="white" transform="translate(15.3986)"/>
</clipPath>
</defs>
</svg>
